<svg xmlns="http://www.w3.org/2000/svg" viewBox="0 0 600 229.85"><defs><style>.a599f6f1-054a-421f-b529-68d0cb3b0ff7{fill:#1a1a18;}</style></defs><g id="aaa8affa-b9e0-4f9d-8b1f-ff303f7a6211" data-name="Ebene 1"><polygon class="a599f6f1-054a-421f-b529-68d0cb3b0ff7" points="105.32 78.43 113.65 131.4 133.41 131.4 124.41 78.43 105.32 78.43"/><polygon class="a599f6f1-054a-421f-b529-68d0cb3b0ff7" points="120.42 55 100.76 55 104.02 71.82 123.28 71.82 120.42 55"/><polygon class="a599f6f1-054a-421f-b529-68d0cb3b0ff7" points="73.39 95.73 58.09 55 38.44 55 25.46 131.4 45.22 131.4 51.81 87.42 68.94 131.4 76.84 131.4 94.87 87.42 88.59 55 73.39 95.73"/><path class="a599f6f1-054a-421f-b529-68d0cb3b0ff7" d="M346.76,45.1c0-6.86-4.11-9.55-9.51-9.55h-7.19V55.07H337C342.55,55.07,346.76,52.32,346.76,45.1Zm-12.2,6.16V39.36h2.22c3.22,0,5.27,1.36,5.27,6,0,4.44-2.05,5.9-5.53,5.9Z"/><rect class="a599f6f1-054a-421f-b529-68d0cb3b0ff7" x="350.66" y="35.55" width="4.51" height="19.52"/><path class="a599f6f1-054a-421f-b529-68d0cb3b0ff7" d="M364.14,51h7.39L373,55.07h4.83l-7.12-19.52H365.1L358,55.07h4.71Zm2-6a48,48,0,0,0,1.59-5.53h.13a37.59,37.59,0,0,0,1.53,5.56l.79,2.19h-4.8Z"/><polygon class="a599f6f1-054a-421f-b529-68d0cb3b0ff7" points="392.79 51.16 385.18 51.16 385.18 35.55 380.67 35.55 380.67 55.07 392.79 55.07 392.79 51.16"/><polygon class="a599f6f1-054a-421f-b529-68d0cb3b0ff7" points="409.36 51.16 400.78 51.16 400.78 47.08 408.33 47.08 408.33 43.34 400.78 43.34 400.78 39.46 409.36 39.46 409.36 35.55 396.27 35.55 396.27 55.07 409.36 55.07 409.36 51.16"/><polygon class="a599f6f1-054a-421f-b529-68d0cb3b0ff7" points="423.1 44.99 429.26 35.55 424.09 35.55 419.26 43.21 418.07 43.21 418.07 35.55 413.56 35.55 413.56 55.07 418.07 55.07 418.07 47.12 419.22 47.12 424.49 55.07 429.86 55.07 423.1 44.99"/><polygon class="a599f6f1-054a-421f-b529-68d0cb3b0ff7" points="435.91 55.07 440.36 55.07 440.36 39.46 445.79 39.46 445.79 35.55 430.58 35.55 430.58 39.46 435.91 39.46 435.91 55.07"/><rect class="a599f6f1-054a-421f-b529-68d0cb3b0ff7" x="456.75" y="32.94" width="3.54" height="28.86"/><path class="a599f6f1-054a-421f-b529-68d0cb3b0ff7" d="M480.43,35.55h-7V55.07H478v-6.3h2.88c4.21,0,6.66-2.48,6.66-6.62C487.52,37.84,485.43,35.55,480.43,35.55Zm-.13,9.55H478V39.33h2.32c1.89,0,2.75,1,2.75,3C483.05,44.14,482.25,45.1,480.3,45.1Z"/><path class="a599f6f1-054a-421f-b529-68d0cb3b0ff7" d="M499.11,35.16c-5.76,0-9.24,3.61-9.24,10.17s3.48,10.14,9.24,10.14,9.28-3.61,9.28-10.14S504.88,35.16,499.11,35.16Zm0,16.43c-3.08,0-4.57-2.35-4.57-6.2s1.53-6.22,4.57-6.22,4.61,2.35,4.61,6.22S502.19,51.59,499.11,51.59Z"/><path class="a599f6f1-054a-421f-b529-68d0cb3b0ff7" d="M519.25,35.55h-7V55.07h4.51v-6.3h2.88c4.21,0,6.66-2.48,6.66-6.62C526.34,37.84,524.25,35.55,519.25,35.55Zm-.13,9.55H516.8V39.33h2.32c1.88,0,2.75,1,2.75,3C521.87,44.14,521.07,45.1,519.12,45.1Z"/><path class="a599f6f1-054a-421f-b529-68d0cb3b0ff7" d="M334.9,72.36l-7.06,19.51h4.7l1.39-4.07h7.39l1.43,4.07h4.84l-7.13-19.51Zm.29,11.69.77-2.22a49,49,0,0,0,1.58-5.53h.14a38.48,38.48,0,0,0,1.52,5.57l.8,2.18Z"/><path class="a599f6f1-054a-421f-b529-68d0cb3b0ff7" d="M359.54,86.93l.73,2.92a3.4,3.4,0,0,0,1,2h5a4.43,4.43,0,0,1-1.1-2.09l-1-3.64A3.53,3.53,0,0,0,361,83.29v-.07a4.5,4.5,0,0,0,4.28-4.9c0-4.37-2.72-6-7.09-6h-7.69V91.87H355V85h1.92C358.38,85,359.14,85.28,359.54,86.93ZM355,81.27v-5.1h2.88c1.85,0,2.78.89,2.78,2.55,0,1.85-1,2.55-2.78,2.55Z"/><polygon class="a599f6f1-054a-421f-b529-68d0cb3b0ff7" points="376.8 91.87 376.8 76.27 382.23 76.27 382.23 72.36 367.02 72.36 367.02 76.27 372.36 76.27 372.36 91.87 376.8 91.87"/><path class="a599f6f1-054a-421f-b529-68d0cb3b0ff7" d="M391,75.64a2.65,2.65,0,0,1,2.82,2.48L398.29,77c-.4-3.72-3.38-5.08-7.39-5.08-3.41,0-6.85,1.46-6.85,5.87,0,3.35,1.85,5,6.33,6.46,2.54.8,3.24,1.39,3.24,2.65s-1.09,1.92-2.58,1.92a3.64,3.64,0,0,1-3.65-3.15l-4.11,1.83c1,3.51,3.58,4.77,7.43,4.77,4.14,0,7.58-1.56,7.58-5.8,0-3.74-2.09-5.14-6.19-6.43-2.29-.69-3.35-1.22-3.35-2.58S389.74,75.64,391,75.64Z"/><rect class="a599f6f1-054a-421f-b529-68d0cb3b0ff7" x="410.25" y="69.74" width="3.54" height="28.86"/><path class="a599f6f1-054a-421f-b529-68d0cb3b0ff7" d="M435.16,75.94c2.12,0,3.18,1.15,3.77,3.08l4.34-2.13c-1.42-3.11-3.94-4.93-7.95-4.93-6,0-9.54,3.64-9.54,10.14s3.64,10.17,8.94,10.17c4.35,0,6.63-1.46,8.39-4.47l-3.81-2.29a4.28,4.28,0,0,1-4.08,2.78c-3.21,0-4.8-2.25-4.8-6.09S432.2,75.94,435.16,75.94Z"/><path class="a599f6f1-054a-421f-b529-68d0cb3b0ff7" d="M454.43,72c-5.76,0-9.24,3.61-9.24,10.17s3.48,10.14,9.24,10.14,9.28-3.61,9.28-10.14S460.2,72,454.43,72Zm0,16.43c-3.08,0-4.57-2.35-4.57-6.19S451.39,76,454.43,76,459,78.32,459,82.2,457.51,88.39,454.43,88.39Z"/><path class="a599f6f1-054a-421f-b529-68d0cb3b0ff7" d="M480.4,80.27c0,2.49.1,4.15.1,4.15h-.13a17.3,17.3,0,0,0-1.63-2.62l-6.89-9.44h-4.24V91.87h4.51V84.12a39.24,39.24,0,0,0-.2-4.41h.13a19.12,19.12,0,0,0,1.86,2.88l6.89,9.28h4.11V72.36H480.4Z"/><path class="a599f6f1-054a-421f-b529-68d0cb3b0ff7" d="M498.19,75.94c2.12,0,3.18,1.15,3.77,3.08l4.34-2.13c-1.42-3.11-3.94-4.93-7.95-4.93-6,0-9.54,3.64-9.54,10.14s3.64,10.17,8.94,10.17c4.35,0,6.63-1.46,8.39-4.47l-3.81-2.29a4.28,4.28,0,0,1-4.08,2.78c-3.21,0-4.8-2.25-4.8-6.09S495.24,75.94,498.19,75.94Z"/><polygon class="a599f6f1-054a-421f-b529-68d0cb3b0ff7" points="509.41 91.87 522.5 91.87 522.5 87.96 513.92 87.96 513.92 83.89 521.47 83.89 521.47 80.14 513.92 80.14 513.92 76.27 522.5 76.27 522.5 72.36 509.41 72.36 509.41 91.87"/><path class="a599f6f1-054a-421f-b529-68d0cb3b0ff7" d="M540.45,86.14a3.52,3.52,0,0,0-3.24-2.85v-.07a4.49,4.49,0,0,0,4.27-4.9c0-4.37-2.72-6-7.09-6H526.7V91.87h4.51V85h1.92c1.49,0,2.25.3,2.65,2l.73,2.92a3.36,3.36,0,0,0,1,2h5a4.32,4.32,0,0,1-1.09-2.09Zm-6.36-4.87h-2.88v-5.1h2.88c1.86,0,2.78.89,2.78,2.55C536.87,80.57,535.88,81.27,534.09,81.27Z"/><polygon class="a599f6f1-054a-421f-b529-68d0cb3b0ff7" points="543.26 76.27 548.6 76.27 548.6 91.87 553.04 91.87 553.04 76.27 558.48 76.27 558.48 72.36 543.26 72.36 543.26 76.27"/><path class="a599f6f1-054a-421f-b529-68d0cb3b0ff7" d="M568.34,80c-2.29-.69-3.35-1.22-3.35-2.58s1-1.82,2.26-1.82a2.63,2.63,0,0,1,2.81,2.48L574.54,77c-.4-3.72-3.38-5.08-7.39-5.08-3.41,0-6.86,1.46-6.86,5.87,0,3.35,1.85,5,6.33,6.46,2.55.8,3.24,1.39,3.24,2.65s-1.09,1.92-2.58,1.92a3.63,3.63,0,0,1-3.64-3.15l-4.11,1.83c1,3.51,3.57,4.77,7.42,4.77,4.14,0,7.59-1.56,7.59-5.8C574.54,82.73,572.45,81.33,568.34,80Z"/><polygon class="a599f6f1-054a-421f-b529-68d0cb3b0ff7" points="401 157.07 376.88 114.58 357.02 114.58 357.02 190.99 376.88 190.99 376.88 149.61 401 190.99 420.76 190.99 420.76 114.58 401 114.58 401 157.07"/><path class="a599f6f1-054a-421f-b529-68d0cb3b0ff7" d="M316.1,142a30.67,30.67,0,1,0,30.67,30.67A30.67,30.67,0,0,0,316.1,142Zm0,42.09a11.42,11.42,0,1,1,11.41-11.42A11.42,11.42,0,0,1,316.1,184.05Z"/><polygon class="a599f6f1-054a-421f-b529-68d0cb3b0ff7" points="289.06 131.4 327.84 131.4 327.84 114.58 304.03 114.58 304.03 55 284.17 55 284.17 114.58 269.44 114.58 236.57 114.58 232.77 114.58 232.77 131.4 236.57 131.4 236.57 131.41 252.88 131.41 252.88 190.99 272.75 190.99 272.75 131.41 289.06 131.41 289.06 131.4"/><rect class="a599f6f1-054a-421f-b529-68d0cb3b0ff7" x="232.77" y="84.58" width="34.62" height="16.82"/><polygon class="a599f6f1-054a-421f-b529-68d0cb3b0ff7" points="255.32 71.82 269.44 71.82 269.44 55 255.32 55 232.77 55 188.24 55 177.24 55 135.74 55 135.74 71.82 152.06 71.82 152.06 131.4 171.92 131.4 171.92 71.82 177.24 71.82 188.24 71.82 193.55 71.82 193.55 131.4 213.41 131.4 213.41 71.82 232.77 71.82 255.32 71.82"/></g></svg>